<?xml version="1.0" encoding="UTF-8" standalone="no"?>
<!-- Created with Inkscape (http://www.inkscape.org/) -->

<svg
   xmlns:dc="http://purl.org/dc/elements/1.1/"
   xmlns:cc="http://creativecommons.org/ns#"
   xmlns:rdf="http://www.w3.org/1999/02/22-rdf-syntax-ns#"
   xmlns:svg="http://www.w3.org/2000/svg"
   xmlns="http://www.w3.org/2000/svg"
   xmlns:sodipodi="http://sodipodi.sourceforge.net/DTD/sodipodi-0.dtd"
   xmlns:inkscape="http://www.inkscape.org/namespaces/inkscape"
   width="210mm"
   height="297mm"
   viewBox="0 0 744.09448819 1052.3622047"
   id="svg2"
   version="1.1"
   inkscape:version="0.91 r13725"
   sodipodi:docname="drawing.svg">
  <defs
     id="defs4" />
  <sodipodi:namedview
     id="base"
     pagecolor="#ffffff"
     bordercolor="#666666"
     borderopacity="1.0"
     inkscape:pageopacity="0.0"
     inkscape:pageshadow="2"
     inkscape:zoom="5.6"
     inkscape:cx="-1.7833185"
     inkscape:cy="639.0527"
     inkscape:document-units="px"
     inkscape:current-layer="layer1"
     showgrid="true"
     showguides="false"
     inkscape:window-width="1920"
     inkscape:window-height="1018"
     inkscape:window-x="-8"
     inkscape:window-y="-8"
     inkscape:window-maximized="1">
    <inkscape:grid
       type="xygrid"
       id="grid4136" />
  </sodipodi:namedview>
  <metadata
     id="metadata7">
    <rdf:RDF>
      <cc:Work
         rdf:about="">
        <dc:format>image/svg+xml</dc:format>
        <dc:type
           rdf:resource="http://purl.org/dc/dcmitype/StillImage" />
        <dc:title></dc:title>
      </cc:Work>
    </rdf:RDF>
  </metadata>
  <g
     inkscape:groupmode="layer"
     id="layer2"
     inkscape:label="Задний план">
    <path
       style="fill:#bf976a;fill-opacity:1;stroke:#bf976a;stroke-width:3;stroke-linejoin:round;stroke-miterlimit:4;stroke-dasharray:none;stroke-dashoffset:0;stroke-opacity:1"
       d="m 53.453724,418.19082 c 6.60593,-1.8931 14.85262,-17.24009 9.2951,-21.28189 -5.55752,-4.0418 -16.62543,9.27734 -16.85735,15.89254 -0.12563,3.5842 4.3579,6.30764 7.56225,5.38934 z"
       id="path4161-9"
       inkscape:connector-curvature="0"
       sodipodi:nodetypes="ssss" />
    <path
       style="fill:#bf976a;fill-opacity:1;stroke:#bf976a;stroke-width:3;stroke-linejoin:round;stroke-miterlimit:4;stroke-dasharray:none;stroke-dashoffset:0;stroke-opacity:1"
       d="m 60.357143,415.04077 c -7.45356,0 -13.918568,13.65962 -10,20 3.504874,5.67101 16.495126,5.67101 20,0 3.918568,-6.34038 -2.54644,-20 -10,-20 z"
       id="path4140"
       inkscape:connector-curvature="0"
       sodipodi:nodetypes="ssss" />
  </g>
  <g
     inkscape:label="Передний план"
     inkscape:groupmode="layer"
     id="layer1">
    <path
       style="fill:#f6c288;fill-opacity:1;stroke:#b69065;stroke-width:3;stroke-linejoin:round;stroke-miterlimit:4;stroke-dasharray:none;stroke-dashoffset:0;stroke-opacity:1"
       d="m 60,422.3622 c 2.262132,2.9617 6.27322,5 10,5 3.72678,0 7.737868,-2.0383 10,-5 5.158454,-6.75371 10.38787,-18.42786 5,-25 -6.339889,-7.73342 -23.660111,-7.73342 -30,0 -5.38787,6.57214 -0.158454,18.24629 5,25 z"
       id="path4138"
       inkscape:connector-curvature="0"
       sodipodi:nodetypes="ssssss" />
    <path
       style="fill:#f6c288;fill-opacity:1;stroke:#b69065;stroke-width:3;stroke-linejoin:round;stroke-miterlimit:4;stroke-dasharray:none;stroke-dashoffset:0;stroke-opacity:1"
       d="m 79.821429,415.21934 c -7.45356,0 -13.918568,13.65962 -10,20 3.504874,5.67101 16.495126,5.67101 20,0 3.918568,-6.34038 -2.54644,-20 -10,-20 z"
       id="path4140-7"
       inkscape:connector-curvature="0"
       sodipodi:nodetypes="ssss" />
    <path
       style="fill:#f6c288;fill-opacity:1;stroke:#b69065;stroke-width:3;stroke-linejoin:round;stroke-miterlimit:4;stroke-dasharray:none;stroke-dashoffset:0;stroke-opacity:1"
       d="m 65.418006,423.9051 c 6.605939,-1.8931 14.852628,-17.24009 9.295109,-21.28189 -5.557527,-4.0418 -16.625433,9.27734 -16.857353,15.89254 -0.125637,3.5842 4.357902,6.30764 7.562248,5.38934 z"
       id="path4161"
       inkscape:connector-curvature="0"
       sodipodi:nodetypes="ssss" />
    <circle
       style="fill:#f6c288;fill-opacity:1;stroke:#bf976a;stroke-width:3;stroke-linejoin:round;stroke-miterlimit:4;stroke-dasharray:none;stroke-dashoffset:0;stroke-opacity:1"
       id="path4207"
       cx="69.464287"
       cy="385.39795"
       r="12.5" />
    <path
       style="fill:#ffffff;fill-opacity:1;stroke:#372b1e;stroke-width:1;stroke-linejoin:round;stroke-miterlimit:4;stroke-dasharray:none;stroke-dashoffset:0;stroke-opacity:1"
       d="m 62.285714,382.3622 c 0,0 3.456376,2.03571 4.580357,0.9375 0.917739,-0.89669 0.223215,-4.78571 0.223215,-4.78571"
       id="path4219"
       inkscape:connector-curvature="0"
       sodipodi:nodetypes="csc" />
    <path
       style="fill:#372b1e;fill-opacity:1;stroke:#372b1e;stroke-width:1;stroke-linejoin:round;stroke-miterlimit:4;stroke-dasharray:none;stroke-dashoffset:0;stroke-opacity:1"
       d="m 61.330356,382.85327 c 2.780789,-1.30306 5.451937,-3.74221 7.607144,-6.27678"
       id="path4217"
       inkscape:connector-curvature="0"
       sodipodi:nodetypes="cc" />
    <circle
       style="fill:#ffffff;fill-opacity:1;stroke:#372b1e;stroke-width:1;stroke-linejoin:round;stroke-miterlimit:4;stroke-dasharray:none;stroke-dashoffset:0;stroke-opacity:1"
       id="path4221"
       cx="64.5"
       cy="381.86221"
       r="0.5" />
    <path
       style="fill:#ffffff;fill-opacity:1;stroke:#372b1e;stroke-width:1;stroke-linejoin:round;stroke-miterlimit:4;stroke-dasharray:none;stroke-dashoffset:0;stroke-opacity:1"
       d="M 55.776786,388.40684 63,387.3622 l 3,2 -5,-1 -5,1"
       id="path4223"
       inkscape:connector-curvature="0"
       sodipodi:nodetypes="ccccc" />
  </g>
</svg>
